<svg width="24" height="24" viewBox="0 0 24 24" fill="none" xmlns="http://www.w3.org/2000/svg">
<path fill-rule="evenodd" clip-rule="evenodd" d="M15 7C15.5523 7 16 7.44772 16 8V21C16 21.5523 15.5523 22 15 22C14.4477 22 14 21.5523 14 21V8C14 7.44772 14.4477 7 15 7Z" fill="black"/>
<path fill-rule="evenodd" clip-rule="evenodd" d="M9 7C9.55228 7 10 7.44772 10 8V21C10 21.5523 9.55228 22 9 22C8.44772 22 8 21.5523 8 21V8C8 7.44772 8.44772 7 9 7Z" fill="black"/>
<path fill-rule="evenodd" clip-rule="evenodd" d="M17 4C17 2.89543 16.1046 2 15 2C13.8954 2 13 2.89543 13 4C13 5.10457 13.8954 6 15 6C16.1046 6 17 5.10457 17 4Z" fill="black"/>
<path fill-rule="evenodd" clip-rule="evenodd" d="M11 4C11 2.89543 10.1046 2 9 2C7.89543 2 7 2.89543 7 4C7 5.10457 7.89543 6 9 6C10.1046 6 11 5.10457 11 4Z" fill="black"/>
<path fill-rule="evenodd" clip-rule="evenodd" d="M7.07155 7.62861C7.22341 7.24895 7.59112 7 8.00002 7H15C15.3513 7 15.6768 7.1843 15.8575 7.4855L18.8575 12.4855C19.1417 12.9591 18.9881 13.5733 18.5145 13.8575C18.0409 14.1416 17.4267 13.9881 17.1425 13.5145L14.4338 9H8.67705L6.9285 13.3714C6.72339 13.8842 6.14141 14.1336 5.62863 13.9285C5.11585 13.7234 4.86643 13.1414 5.07155 12.6286L7.07155 7.62861Z" fill="black"/>
</svg>
